<?xml version="1.0" encoding="iso-8859-1"?>
<!-- Generator: Adobe Illustrator 19.0.0, SVG Export Plug-In . SVG Version: 6.00 Build 0)  -->
<svg version="1.1" id="Capa_1" xmlns="http://www.w3.org/2000/svg" xmlns:xlink="http://www.w3.org/1999/xlink" x="0px" y="0px"
	 viewBox="0 0 496 496" style="enable-background:new 0 0 496 496;" xml:space="preserve">
<g>
	<g>
		<path d="M384.344,238.23L304,179.798V67.75c0-14.96-5.824-29.016-16.4-39.6L267.312,7.87C257-2.45,239-2.45,228.688,7.87
			L208.4,28.158C197.824,38.734,192,52.798,192,67.75v112.04l-80.336,58.424c-4.8,3.496-7.664,9.12-7.664,15.056
			c0,10.256,8.344,18.6,18.6,18.6H176v-16h-53.4c-1.432,0-2.6-1.168-2.6-2.6c0-0.832,0.4-1.616,1.072-2.104L192,199.582v72.288h112
			v-72.288l70.928,51.584c0.672,0.488,1.072,1.272,1.072,2.104c0,1.432-1.168,2.6-2.6,2.6H320v16h53.4
			c10.256,0,18.6-8.344,18.6-18.6C392,247.342,389.136,241.718,384.344,238.23z M256,255.87h-16v-52.688l8-8l8,8V255.87z
			 M288,111.87h-16v16h16v128h-16v-59.312l-24-24l-24,24v59.312h-16v-128h16v-16h-16v-16h80V111.87z M288,79.87h-80V67.75
			c0-10.68,4.16-20.728,11.712-28.28L240,19.182c4.208-4.208,11.792-4.208,16,0l20.288,20.288C283.84,47.022,288,57.07,288,67.75
			V79.87z"/>
	</g>
</g>
<g>
	<g>
		<polygon points="280,287.87 280,303.87 256,303.87 256,287.87 240,287.87 240,303.87 216,303.87 216,287.87 200,287.87 
			200,319.87 296,319.87 296,287.87 		"/>
	</g>
</g>
<g>
	<g>
		<path d="M461.576,479.87c1.56-5.184,2.424-10.56,2.424-16c0-30.88-25.12-56-56-56c-8.976,0-17.432,2.176-24.952,5.944
			c-4.76-26.088-27.608-45.944-55.048-45.944c-6.736,0-13.44,1.232-19.712,3.584c-7.656-8.808-17.24-16.008-28.288-20.84V335.87h-16
			v25.832l5.328,1.888c25.52,9.04,42.672,33.264,42.672,60.28h16c0-13.864-3.784-27.032-10.248-38.648
			c3.312-0.872,6.728-1.352,10.248-1.352c22.056,0,40,17.944,40,40c0,0.312-0.032,0.616-0.04,0.928
			c-9.856,10.096-15.96,23.88-15.96,39.072h16c0-22.056,17.944-40,40-40c22.056,0,40,17.944,40,40c0,5.504-1.168,10.952-3.392,16
			H51.344c-2.192-5.016-3.344-10.464-3.344-16c0-22.056,17.944-40,40-40c14.232,0,27.512,7.664,34.656,20.008l13.848-8.016
			c-2.36-4.08-5.24-7.76-8.464-11.056c-0.008-0.312-0.04-0.624-0.04-0.936c0-22.056,17.944-40,40-40c3.52,0,6.936,0.48,10.24,1.352
			C171.784,396.838,168,410.006,168,423.87c0,18.232,6.304,36.072,17.736,50.24l12.448-10.056
			C188.904,452.558,184,438.67,184,423.87c0-27.016,17.152-51.24,42.672-60.272l5.328-1.896V335.87h-16v14.744
			c-11.048,4.832-20.632,12.032-28.288,20.84c-6.272-2.352-12.976-3.584-19.712-3.584c-27.472,0-50.336,19.896-55.056,46.024
			C105.288,410.07,96.8,407.87,88,407.87c-30.88,0-56,25.12-56,56c0,5.456,0.848,10.832,2.392,16H0v16h496v-16H461.576z"/>
	</g>
</g>
<g>
	<g>
		<rect x="200" y="407.87" width="16" height="16"/>
	</g>
</g>
<g>
	<g>
		<rect x="296" y="439.87" width="16" height="16"/>
	</g>
</g>
<g>
	<g>
		<rect x="400" y="447.87" width="16" height="16"/>
	</g>
</g>
<g>
	<g>
		<rect x="136" y="447.87" width="16" height="16"/>
	</g>
</g>
<g>
</g>
<g>
</g>
<g>
</g>
<g>
</g>
<g>
</g>
<g>
</g>
<g>
</g>
<g>
</g>
<g>
</g>
<g>
</g>
<g>
</g>
<g>
</g>
<g>
</g>
<g>
</g>
<g>
</g>
</svg>
