<?xml version="1.0" encoding="iso-8859-1"?>
<!-- Generator: Adobe Illustrator 19.0.0, SVG Export Plug-In . SVG Version: 6.00 Build 0)  -->
<svg version="1.1" id="Capa_1" xmlns="http://www.w3.org/2000/svg" xmlns:xlink="http://www.w3.org/1999/xlink" x="0px" y="0px"
	 viewBox="0 0 512 512" style="enable-background:new 0 0 512 512;" xml:space="preserve">
<g>
	<g>
		<g>
			<path d="M484.571,2.371H27.429C12.287,2.387,0.017,14.658,0,29.799v329.143c0.017,15.141,12.287,27.412,27.429,27.429h96.422
				l-2.73-3.121c-2.152-2.458-2.828-5.877-1.776-8.969c1.053-3.092,3.675-5.388,6.879-6.022s6.504,0.489,8.655,2.947L256,509.629
				l121.121-138.424c2.152-2.458,5.451-3.581,8.655-2.947s5.827,2.93,6.879,6.022c1.053,3.092,0.376,6.511-1.776,8.969l-2.73,3.121
				h96.422c15.142-0.017,27.412-12.287,27.429-27.429V29.799C511.984,14.658,499.713,2.387,484.571,2.371z M370.973,284.915
				c-16.777,40.279-54.17,68.215-97.552,72.882l-0.032,0.011c-5.764,0.773-11.573,1.152-17.388,1.134
				c-67.304,0-122.063-50.018-122.063-111.5c-0.024-11.605,1.975-23.126,5.909-34.045l0.002-0.013l0.011-0.026l0.03-0.095
				l0.025-0.04c9.587-26.443,28.685-48.365,53.564-61.486c2.712-1.476,5.986-1.483,8.704-0.019c2.718,1.464,4.514,4.201,4.774,7.278
				c0.617,6.962,2.356,13.778,5.151,20.184c-1.938-8.867-2.916-17.916-2.919-26.992c-0.008-0.646,0.024-1.291,0.094-1.933
				c0.435-25.183,8.205-49.692,22.357-70.527c14.29-20.89,33.715-37.752,56.406-48.964c3.321-1.661,7.316-1.148,10.111,1.297
				c2.794,2.445,3.832,6.337,2.627,9.849c-3.38,9.913-5.308,20.263-5.723,30.728c-0.076,1.469-0.071,2.843-0.071,4.295
				c0.246,32.447,14.359,63.239,38.777,84.607l0.241,0.228c12.669,10.464,23.468,23.006,31.933,37.089
				c7.969,14.954,12.133,31.64,12.125,48.585C378.083,260.268,375.678,272.983,370.973,284.915z"/>
			<path d="M321.558,175.165v-0.004l-0.205-0.188c-28.188-24.814-44.435-60.487-44.652-98.04c0-1.781,0.004-3.469,0.094-5.157
				c0.192-4.606,0.63-9.199,1.313-13.759c-12.255,8.695-22.857,19.509-31.308,31.933c-12.27,18.044-18.961,39.298-19.241,61.116
				c-0.005,0.605-0.071,1.208-0.196,1.799c0.261,20.799,6.347,41.109,17.567,58.625l0.003,0.007l0.042,0.065
				c1.42,2.161,2.835,4.326,4.398,6.487c2.491,3.444,2.28,8.151-0.51,11.358s-7.421,4.069-11.178,2.08
				c-4.25-2.252-8.324-4.822-12.187-7.689l-0.037-0.017l-0.039-0.03l-0.051-0.032l-0.026-0.028
				c-16.658-11.94-28.712-29.237-34.149-48.998c-15.703,11.024-27.609,26.639-34.08,44.701l-0.031,0.057l-0.009,0.064
				c-3.237,8.954-4.88,18.407-4.853,27.929c0,51.397,46.554,93.214,103.777,93.214c4.973,0.019,9.942-0.303,14.87-0.964l0.057,0.003
				l0.037-0.012c36.807-3.792,68.62-27.347,82.987-61.446c3.867-9.805,5.844-20.254,5.826-30.795
				c0.003-13.958-3.43-27.701-9.996-40.018C342.244,195.168,332.704,184.264,321.558,175.165z"/>
		</g>
	</g>
</g>
<g>
</g>
<g>
</g>
<g>
</g>
<g>
</g>
<g>
</g>
<g>
</g>
<g>
</g>
<g>
</g>
<g>
</g>
<g>
</g>
<g>
</g>
<g>
</g>
<g>
</g>
<g>
</g>
<g>
</g>
</svg>
